<mxfile host="app.diagrams.net" modified="2022-02-25T15:14:57.392Z" agent="5.0 (Windows NT 10.0; Win64; x64) AppleWebKit/537.36 (KHTML, like Gecko) Chrome/98.0.4758.102 Safari/537.36" etag="ywQ_weQES6uPhAi8kyEn" version="16.6.4" type="github">
  <diagram id="K6LmjykUuhln-A83gKc8" name="Page-1">
    <mxGraphModel dx="1221" dy="644" grid="1" gridSize="10" guides="1" tooltips="1" connect="1" arrows="1" fold="1" page="1" pageScale="1" pageWidth="827" pageHeight="1169" math="0" shadow="0">
      <root>
        <mxCell id="0" />
        <mxCell id="1" parent="0" />
        <mxCell id="tIcMzQEfdsWm62XmyKLp-1" value="시작" style="rounded=1;whiteSpace=wrap;html=1;arcSize=47;" vertex="1" parent="1">
          <mxGeometry x="340" y="20" width="110" height="40" as="geometry" />
        </mxCell>
        <mxCell id="tIcMzQEfdsWm62XmyKLp-2" value="색상이&lt;br&gt;존재하는가" style="rhombus;whiteSpace=wrap;html=1;" vertex="1" parent="1">
          <mxGeometry x="340" y="180" width="110" height="60" as="geometry" />
        </mxCell>
        <mxCell id="tIcMzQEfdsWm62XmyKLp-3" value="" style="endArrow=classic;html=1;rounded=0;" edge="1" parent="1">
          <mxGeometry width="50" height="50" relative="1" as="geometry">
            <mxPoint x="394.5" y="60" as="sourcePoint" />
            <mxPoint x="394.5" y="100" as="targetPoint" />
            <Array as="points">
              <mxPoint x="394.5" y="60" />
            </Array>
          </mxGeometry>
        </mxCell>
        <mxCell id="tIcMzQEfdsWm62XmyKLp-4" value="" style="endArrow=classic;html=1;rounded=0;exitX=0;exitY=0.5;exitDx=0;exitDy=0;" edge="1" parent="1" source="tIcMzQEfdsWm62XmyKLp-2">
          <mxGeometry width="50" height="50" relative="1" as="geometry">
            <mxPoint x="280" y="160" as="sourcePoint" />
            <mxPoint x="300" y="210" as="targetPoint" />
          </mxGeometry>
        </mxCell>
        <mxCell id="tIcMzQEfdsWm62XmyKLp-6" value="" style="endArrow=classic;html=1;rounded=0;" edge="1" parent="1" target="tIcMzQEfdsWm62XmyKLp-2">
          <mxGeometry width="50" height="50" relative="1" as="geometry">
            <mxPoint x="395" y="130" as="sourcePoint" />
            <mxPoint x="420" y="140" as="targetPoint" />
          </mxGeometry>
        </mxCell>
        <mxCell id="tIcMzQEfdsWm62XmyKLp-7" value="예" style="text;html=1;strokeColor=none;fillColor=none;align=center;verticalAlign=middle;whiteSpace=wrap;rounded=0;" vertex="1" parent="1">
          <mxGeometry x="300" y="170" width="60" height="30" as="geometry" />
        </mxCell>
        <mxCell id="tIcMzQEfdsWm62XmyKLp-8" value="" style="endArrow=classic;html=1;rounded=0;exitX=1;exitY=0.5;exitDx=0;exitDy=0;" edge="1" parent="1" source="tIcMzQEfdsWm62XmyKLp-2">
          <mxGeometry width="50" height="50" relative="1" as="geometry">
            <mxPoint x="460" y="270" as="sourcePoint" />
            <mxPoint x="490" y="210" as="targetPoint" />
          </mxGeometry>
        </mxCell>
        <mxCell id="tIcMzQEfdsWm62XmyKLp-9" value="아니요" style="text;html=1;strokeColor=none;fillColor=none;align=center;verticalAlign=middle;whiteSpace=wrap;rounded=0;" vertex="1" parent="1">
          <mxGeometry x="430" y="170" width="60" height="30" as="geometry" />
        </mxCell>
        <mxCell id="tIcMzQEfdsWm62XmyKLp-10" value="골프공 사진 입력" style="shape=parallelogram;perimeter=parallelogramPerimeter;whiteSpace=wrap;html=1;fixedSize=1;" vertex="1" parent="1">
          <mxGeometry x="335" y="100" width="120" height="50" as="geometry" />
        </mxCell>
        <mxCell id="tIcMzQEfdsWm62XmyKLp-11" value="1번 통으로 분류한다&amp;nbsp;" style="rounded=0;whiteSpace=wrap;html=1;" vertex="1" parent="1">
          <mxGeometry x="180" y="180" width="120" height="60" as="geometry" />
        </mxCell>
        <mxCell id="tIcMzQEfdsWm62XmyKLp-12" value="" style="endArrow=classic;html=1;rounded=0;exitX=0;exitY=0.5;exitDx=0;exitDy=0;" edge="1" parent="1" source="tIcMzQEfdsWm62XmyKLp-11">
          <mxGeometry width="50" height="50" relative="1" as="geometry">
            <mxPoint x="130" y="230" as="sourcePoint" />
            <mxPoint x="140" y="210" as="targetPoint" />
          </mxGeometry>
        </mxCell>
        <mxCell id="tIcMzQEfdsWm62XmyKLp-13" value="분류가 안된 &lt;br&gt;공이 있는가" style="rhombus;whiteSpace=wrap;html=1;" vertex="1" parent="1">
          <mxGeometry x="50" y="160" width="90" height="100" as="geometry" />
        </mxCell>
        <mxCell id="tIcMzQEfdsWm62XmyKLp-15" value="예" style="text;html=1;strokeColor=none;fillColor=none;align=center;verticalAlign=middle;whiteSpace=wrap;rounded=0;" vertex="1" parent="1">
          <mxGeometry x="30" y="130" width="60" height="30" as="geometry" />
        </mxCell>
        <mxCell id="tIcMzQEfdsWm62XmyKLp-16" value="" style="endArrow=classic;html=1;rounded=0;exitX=0.5;exitY=1;exitDx=0;exitDy=0;" edge="1" parent="1" source="tIcMzQEfdsWm62XmyKLp-13" target="tIcMzQEfdsWm62XmyKLp-17">
          <mxGeometry width="50" height="50" relative="1" as="geometry">
            <mxPoint x="240" y="290" as="sourcePoint" />
            <mxPoint x="190" y="480" as="targetPoint" />
            <Array as="points">
              <mxPoint x="95" y="320" />
              <mxPoint x="420" y="320" />
            </Array>
          </mxGeometry>
        </mxCell>
        <mxCell id="tIcMzQEfdsWm62XmyKLp-17" value="종료" style="rounded=1;whiteSpace=wrap;html=1;arcSize=47;" vertex="1" parent="1">
          <mxGeometry x="350" y="400" width="140" height="40" as="geometry" />
        </mxCell>
        <mxCell id="tIcMzQEfdsWm62XmyKLp-14" value="" style="endArrow=classic;html=1;rounded=0;exitX=0.5;exitY=0;exitDx=0;exitDy=0;" edge="1" parent="1" source="tIcMzQEfdsWm62XmyKLp-13">
          <mxGeometry width="50" height="50" relative="1" as="geometry">
            <mxPoint x="130" y="130" as="sourcePoint" />
            <mxPoint x="350" y="120" as="targetPoint" />
            <Array as="points">
              <mxPoint x="95" y="120" />
              <mxPoint x="210" y="120" />
              <mxPoint x="260" y="120" />
            </Array>
          </mxGeometry>
        </mxCell>
        <mxCell id="tIcMzQEfdsWm62XmyKLp-19" value="브랜드가&lt;br&gt;인식이 되는가" style="rhombus;whiteSpace=wrap;html=1;" vertex="1" parent="1">
          <mxGeometry x="490" y="175" width="110" height="70" as="geometry" />
        </mxCell>
        <mxCell id="tIcMzQEfdsWm62XmyKLp-21" value="" style="endArrow=classic;html=1;rounded=0;exitX=1;exitY=0.5;exitDx=0;exitDy=0;" edge="1" parent="1" source="tIcMzQEfdsWm62XmyKLp-19">
          <mxGeometry width="50" height="50" relative="1" as="geometry">
            <mxPoint x="600" y="230" as="sourcePoint" />
            <mxPoint x="640" y="210" as="targetPoint" />
          </mxGeometry>
        </mxCell>
        <mxCell id="tIcMzQEfdsWm62XmyKLp-22" value="2번통으로&lt;br&gt;분류한다" style="rounded=0;whiteSpace=wrap;html=1;" vertex="1" parent="1">
          <mxGeometry x="510" y="90" width="70" height="60" as="geometry" />
        </mxCell>
        <mxCell id="tIcMzQEfdsWm62XmyKLp-23" value="" style="endArrow=classic;html=1;rounded=0;exitX=0.5;exitY=0;exitDx=0;exitDy=0;" edge="1" parent="1" source="tIcMzQEfdsWm62XmyKLp-19">
          <mxGeometry width="50" height="50" relative="1" as="geometry">
            <mxPoint x="440" y="330" as="sourcePoint" />
            <mxPoint x="545" y="150" as="targetPoint" />
          </mxGeometry>
        </mxCell>
        <mxCell id="tIcMzQEfdsWm62XmyKLp-24" value="각 브랜드별로&lt;br&gt;분류한다." style="whiteSpace=wrap;html=1;aspect=fixed;" vertex="1" parent="1">
          <mxGeometry x="640" y="180" width="60" height="60" as="geometry" />
        </mxCell>
        <mxCell id="tIcMzQEfdsWm62XmyKLp-25" value="분류가 안된&lt;br&gt;공이 있는가?" style="rhombus;whiteSpace=wrap;html=1;" vertex="1" parent="1">
          <mxGeometry x="630" y="30" width="120" height="80" as="geometry" />
        </mxCell>
        <mxCell id="tIcMzQEfdsWm62XmyKLp-26" value="" style="endArrow=classic;html=1;rounded=0;exitX=0;exitY=0.5;exitDx=0;exitDy=0;entryX=1;entryY=0.5;entryDx=0;entryDy=0;" edge="1" parent="1" source="tIcMzQEfdsWm62XmyKLp-25" target="tIcMzQEfdsWm62XmyKLp-10">
          <mxGeometry width="50" height="50" relative="1" as="geometry">
            <mxPoint x="570" y="80" as="sourcePoint" />
            <mxPoint x="470" y="70" as="targetPoint" />
            <Array as="points">
              <mxPoint x="480" y="70" />
              <mxPoint x="480" y="125" />
            </Array>
          </mxGeometry>
        </mxCell>
        <mxCell id="tIcMzQEfdsWm62XmyKLp-27" value="" style="endArrow=classic;html=1;rounded=0;exitX=1;exitY=0.5;exitDx=0;exitDy=0;entryX=0;entryY=0.5;entryDx=0;entryDy=0;" edge="1" parent="1" source="tIcMzQEfdsWm62XmyKLp-22" target="tIcMzQEfdsWm62XmyKLp-25">
          <mxGeometry width="50" height="50" relative="1" as="geometry">
            <mxPoint x="590" y="150" as="sourcePoint" />
            <mxPoint x="640" y="100" as="targetPoint" />
          </mxGeometry>
        </mxCell>
        <mxCell id="tIcMzQEfdsWm62XmyKLp-28" value="" style="endArrow=classic;html=1;rounded=0;exitX=0.5;exitY=0;exitDx=0;exitDy=0;entryX=0.5;entryY=1;entryDx=0;entryDy=0;" edge="1" parent="1" source="tIcMzQEfdsWm62XmyKLp-24" target="tIcMzQEfdsWm62XmyKLp-25">
          <mxGeometry width="50" height="50" relative="1" as="geometry">
            <mxPoint x="660" y="175" as="sourcePoint" />
            <mxPoint x="710" y="125" as="targetPoint" />
          </mxGeometry>
        </mxCell>
        <mxCell id="tIcMzQEfdsWm62XmyKLp-29" value="예" style="text;html=1;strokeColor=none;fillColor=none;align=center;verticalAlign=middle;whiteSpace=wrap;rounded=0;" vertex="1" parent="1">
          <mxGeometry x="570" y="40" width="60" height="30" as="geometry" />
        </mxCell>
        <mxCell id="tIcMzQEfdsWm62XmyKLp-30" value="아니요" style="text;html=1;strokeColor=none;fillColor=none;align=center;verticalAlign=middle;whiteSpace=wrap;rounded=0;" vertex="1" parent="1">
          <mxGeometry x="740" y="25" width="60" height="30" as="geometry" />
        </mxCell>
        <mxCell id="tIcMzQEfdsWm62XmyKLp-31" value="" style="endArrow=classic;html=1;rounded=0;exitX=1;exitY=0.5;exitDx=0;exitDy=0;entryX=0.643;entryY=0.035;entryDx=0;entryDy=0;entryPerimeter=0;" edge="1" parent="1" source="tIcMzQEfdsWm62XmyKLp-25" target="tIcMzQEfdsWm62XmyKLp-17">
          <mxGeometry width="50" height="50" relative="1" as="geometry">
            <mxPoint x="750" y="110" as="sourcePoint" />
            <mxPoint x="440" y="540" as="targetPoint" />
            <Array as="points">
              <mxPoint x="750" y="320" />
              <mxPoint x="440" y="320" />
            </Array>
          </mxGeometry>
        </mxCell>
        <mxCell id="tIcMzQEfdsWm62XmyKLp-32" value="아니요" style="text;html=1;strokeColor=none;fillColor=none;align=center;verticalAlign=middle;whiteSpace=wrap;rounded=0;" vertex="1" parent="1">
          <mxGeometry x="480" y="150" width="60" height="30" as="geometry" />
        </mxCell>
        <mxCell id="tIcMzQEfdsWm62XmyKLp-33" value="예" style="text;html=1;strokeColor=none;fillColor=none;align=center;verticalAlign=middle;whiteSpace=wrap;rounded=0;" vertex="1" parent="1">
          <mxGeometry x="580" y="175" width="60" height="30" as="geometry" />
        </mxCell>
      </root>
    </mxGraphModel>
  </diagram>
</mxfile>
